<?xml version="1.0" encoding="UTF-8"?>
<svg width="1000px" height="1000px" viewBox="0 0 1000 1000" version="1.1" xmlns="http://www.w3.org/2000/svg" xmlns:xlink="http://www.w3.org/1999/xlink">
    <title>icon</title>
    <g id="icon" stroke="none" stroke-width="1" fill="none" fill-rule="evenodd">
        <rect id="Rectangle" fill="#000438" x="0" y="0" width="1000" height="1000" rx="256"></rect>
        <path d="M479.798828,782 C537.181641,782 581.107422,769.939453 611.576172,745.818359 C642.044922,721.697266 657.279297,686.785156 657.279297,641.082031 C657.279297,567.449219 611.195312,516.541016 519.027344,488.357422 C596.214844,459.412109 634.808594,410.789063 634.808594,342.488281 C634.808594,302.371094 619.764648,271.648438 589.676758,250.320313 C559.588867,228.992188 516.361328,218.328125 459.994141,218.328125 L459.994141,218.328125 L313.744141,218.328125 L313.744141,782 L479.798828,782 Z M418.480469,465.886719 L392.962891,465.886719 L392.962891,278.123047 L424.193359,278.123047 C510.013672,278.123047 552.923828,305.798828 552.923828,361.150391 C552.923828,394.412109 541.180664,420.183594 517.694336,438.464844 C494.208008,456.746094 461.136719,465.886719 418.480469,465.886719 L418.480469,465.886719 Z M409.339844,722.205078 L392.962891,722.205078 L392.962891,516.541016 L415.433594,516.541016 C460.375,516.541016 497.826172,527.649414 527.787109,549.866211 C557.748047,572.083008 572.728516,599.949219 572.728516,633.464844 C572.728516,671.296875 556.224609,697.195313 523.216797,711.160156 C505.951172,718.523438 467.992187,722.205078 409.339844,722.205078 L409.339844,722.205078 Z" id="B" fill="#FFFFFF" fill-rule="nonzero" transform="translate(485.511719, 500.164063) rotate(-180.000000) translate(-485.511719, -500.164063) "></path>
    </g>
</svg>